{"title":"Inside Man.2006[x264][AC3(5.1)] 10Multi_Sub.mkv","uid":5317180,"size":1556170077,"categoryP":"video","categoryS":"movies","magnet":"?xt=urn:btih:32fad0db8be46d985c8199e186089c72976016e9&amp;dn=Inside+Man.2006%5Bx264%5D%5BAC3%285.1%29%5D+10Multi_Sub.mkv&amp;tr=udp%3A%2F%2Ftracker.openbittorrent.com%3A80&amp;tr=udp%3A%2F%2Fopen.demonii.com%3A1337&amp;tr=udp%3A%2F%2Ftracker.coppersurfer.tk%3A6969&amp;tr=udp%3A%2F%2Fexodus.desync.com%3A6969","seeders":0,"leechers":1,"uploader":"Zen_Bud","files":-1,"time":1264756379,"description":"General\nComplete name                    : Inside Man.mkv\nFormat                           : Matroska\nFile size                        : 1.45 GiB\nDuration                         : 2h 3mn\nOverall bit rate                 : 1 682 Kbps\n\nVideo\nID                               : 1\nFormat                           : AVC\nDuration                         : 2h 3mn\nBit rate                         : 1 264 Kbps\nWidth                            : 720 pixels\nHeight                           : 576 pixels\nDisplay aspect ratio             : 2.35:1\nFrame rate                       : 25.000 fps\nResolution                       : 8 bits\nColorimetry                      : 4:2:0\nScan type                        : Progressive\nBits/(Pixel*Frame)               : 0.122\nStream size                      : 1.09 GiB (75%)\nWriting library                  : x264 core 79\n\n\nAudio\nID                               : 2\nFormat                           : AC-3\nFormat/Info                      : Audio Coding 3\nCodec ID                         : A_AC3\nDuration                         : 2h 3mn\nBit rate mode                    : Constant\nBit rate                         : 384 Kbps\nChannel(s)                       : 6 channels\nChannel positions                : Front: L C R, Surround: L R, LFE\nSampling rate                    : 48.0 KHz\nStream size                      : 339 MiB (23%)\nLanguage                         : English\n\nText #1\nLanguage                         : English\n\nText #2\nLanguage                         : Dutch\n\nText #3\nLanguage                         : Arabic\n\nText #4\nLanguage                         : Danish\n\nText #5\nLanguage                         : Finnish\n\nText #6\nLanguage                         : xxxxxx\n\nText #7\nLanguage                         : Icelandic\n\nText #8\nLanguage                         : Norwegian\n\nText #9\nLanguage                         : Swedish\n\nText #10\nLanguage                         : Russian\n\n\n\n","torrent":{"xt":"urn:btih:32fad0db8be46d985c8199e186089c72976016e9","amp;dn":"Inside+Man.2006%5Bx264%5D%5BAC3%285.1%29%5D+10Multi_Sub.mkv","amp;tr":["udp%3A%2F%2Ftracker.openbittorrent.com%3A80","udp%3A%2F%2Fopen.demonii.com%3A1337","udp%3A%2F%2Ftracker.coppersurfer.tk%3A6969","udp%3A%2F%2Fexodus.desync.com%3A6969"],"infoHash":"32fad0db8be46d985c8199e186089c72976016e9","infoHashBuffer":{"type":"Buffer","data":[50,250,208,219,139,228,109,152,92,129,153,225,134,8,156,114,151,96,22,233]},"announce":[],"urlList":[]}}